<svg width="154" height="154" viewBox="0 0 154 154" fill="none" xmlns="http://www.w3.org/2000/svg">
<circle cx="77" cy="77" r="77" fill="#A4B5FB"/>
<path fill-rule="evenodd" clip-rule="evenodd" d="M77.0002 53.5C77.7793 53.5 78.5264 53.8095 79.0773 54.3604C79.6282 54.9113 79.9377 55.6584 79.9377 56.4375L79.9377 90.4714L92.5454 77.8578C93.097 77.3062 93.8451 76.9963 94.6252 76.9963C95.4053 76.9963 96.1534 77.3062 96.7049 77.8578C97.2565 78.4093 97.5664 79.1574 97.5664 79.9375C97.5664 80.7176 97.2565 81.4657 96.7049 82.0173L79.0799 99.6423C78.8071 99.9158 78.4829 100.133 78.126 100.281C77.7692 100.429 77.3866 100.505 77.0002 100.505C76.6138 100.505 76.2312 100.429 75.8743 100.281C75.5175 100.133 75.1933 99.9158 74.9204 99.6423L57.2954 82.0173C56.7439 81.4657 56.434 80.7176 56.434 79.9375C56.434 79.1574 56.7439 78.4093 57.2954 77.8578C57.847 77.3062 58.5951 76.9963 59.3752 76.9963C60.1552 76.9963 60.9034 77.3062 61.4549 77.8578L74.0627 90.4714L74.0627 56.4375C74.0627 55.6584 74.3722 54.9113 74.9231 54.3604C75.474 53.8095 76.2211 53.5 77.0002 53.5Z" fill="#223DAC"/>
</svg>
